# xmcd CD database file
#
# Track frame offsets:
#	150
#	11667
#	23267
#	37521
#	52080
#	71087
#	88019
#	104151
#	119521
#	136933
#	149489
#	164843
#	178616
#	199677
#	215354
#	230211
#	246982
#	260595
#	275097
#	289741
#
# Disc length: 4047 seconds
#
# Revision: 1
# Processed by: cddbd v1.5.1PL2 Copyright (c) Steve Scherf et al.
# Submitted via: CDex 1.51
#
DISCID=380fcd14
DTITLE=Miles Davis - Move
DYEAR=1900
DGENRE=Jazz
TTITLE0=Move
TTITLE1=Budo
TTITLE2=Godchild
TTITLE3=Donna
TTITLE4=Dear Old Stockholm
TTITLE5=Yesterdays
TTITLE6=C.T.A.
TTITLE7=Enigma
TTITLE8=Tempus Fugit
TTITLE9=Deception
TTITLE10=Woody 'N' You
TTITLE11=Chance It
TTITLE12=How Deep Is The Ocean
TTITLE13=I Waited For You
TTITLE14=Kelo
TTITLE15=Ray's Idea
TTITLE16=Boplicity
TTITLE17=Venus De Milo
TTITLE18=Rouge
TTITLE19=Rocker
EXTD=
EXTT0=
EXTT1=
EXTT2=
EXTT3=
EXTT4=
EXTT5=
EXTT6=
EXTT7=
EXTT8=
EXTT9=
EXTT10=
EXTT11=
EXTT12=
EXTT13=
EXTT14=
EXTT15=
EXTT16=
EXTT17=
EXTT18=
EXTT19=
PLAYORDER=
